<svg width="62" height="62" viewBox="0 0 62 62" fill="none" xmlns="http://www.w3.org/2000/svg">
<path d="M48.781 54.8906C48.781 58.2647 51.5163 61 54.8905 61V61C58.2646 61 60.9999 58.2647 60.9999 54.8906V31C60.9999 27.6259 58.2187 24.8906 54.8445 24.8906V24.8906C51.5207 24.8906 48.781 22.1961 48.781 18.8723V18.69C48.781 15.4669 46.1682 12.8541 42.9452 12.8541V12.8541C39.7221 12.8541 37.1093 15.4669 37.1093 18.69V18.8723C37.1093 22.1961 34.4148 24.8906 31.0911 24.8906H30.9087C27.5849 24.8906 24.8905 22.1961 24.8905 18.8723V18.6899C24.8905 15.4669 22.2777 12.8541 19.0547 12.8541V12.8541C15.8316 12.8541 13.2188 10.1961 13.2188 6.97303V6.97303C13.2188 3.69961 10.5652 1 7.29179 1H7.10942C3.73528 1 1 3.73528 1 7.10942V54.8906C1 58.2647 3.73526 61 7.10937 61V61C10.4835 61 13.2187 58.2647 13.2187 54.8906V30.9088C13.2187 27.6858 15.8315 25.0729 19.0546 25.0729V25.0729C22.2777 25.0729 24.8905 27.6858 24.8905 30.9088V31.0912C24.8905 34.415 27.5849 37.1094 30.9087 37.1094H31.0911C34.4148 37.1094 37.1093 34.415 37.1093 31.0912V30.9088C37.1093 27.6858 39.7221 25.0729 42.9452 25.0729V25.0729C46.1682 25.0729 48.781 27.6858 48.781 30.9088V54.8906Z" fill="#BAC49C" stroke="#BAC49C" stroke-width="0.52989"/>
</svg>
