<svg width="90" height="90" viewBox="0 0 90 90" fill="none" xmlns="http://www.w3.org/2000/svg">
<path d="M27.2985 25.1682C25.7579 20.588 20.7014 17.796 16.0045 18.9322C11.3076 20.0684 8.74888 24.7025 10.2895 29.2828L22.9046 66.7887C24.4452 71.369 29.5017 74.1609 34.1986 73.0247C38.8955 71.8885 41.4542 67.2544 39.9137 62.6742L27.2985 25.1682Z" fill="#E879F9" fill-opacity="0.8"/>
<path d="M36.1702 25.1682C37.7108 20.588 42.7673 17.796 47.4642 18.9322C52.1611 20.0684 54.7199 24.7025 53.1793 29.2828L40.5641 66.7887C39.0236 71.369 33.9671 74.1609 29.2702 73.0247C24.5732 71.8885 22.0145 67.2544 23.5551 62.6742L36.1702 25.1682Z" fill="#A3E635" fill-opacity="0.8"/>
<path d="M53.8298 25.1682C52.2892 20.588 47.2327 17.796 42.5358 18.9322C37.8389 20.0684 35.2801 24.7025 36.8207 29.2828L49.4359 66.7887C50.9764 71.369 56.0329 74.1609 60.7298 73.0247C65.4268 71.8885 67.9855 67.2544 66.4449 62.6742L53.8298 25.1682Z" fill="#A78BFA" fill-opacity="0.8"/>
<path d="M62.7015 25.1682C64.2421 20.588 69.2986 17.796 73.9955 18.9322C78.6924 20.0684 81.2511 24.7025 79.7105 29.2828L67.0954 66.7887C65.5548 71.369 60.4983 74.1609 55.8014 73.0247C51.1045 71.8885 48.5458 67.2544 50.0863 62.6742L62.7015 25.1682Z" fill="#38BDF8" fill-opacity="0.8"/>
</svg>
