<svg width="60" height="60" viewBox="0 0 60 60" fill="none" xmlns="http://www.w3.org/2000/svg">
<path d="M5 60H10C12.7667 60 15 57.7667 15 55V50C15 47.2333 12.7667 45 10 45H5C2.23333 45 0 47.2333 0 50V55C0 57.7667 2.23333 60 5 60Z" fill="#93C5FD"/>
<path d="M20 45H25C27.7667 45 30 42.7667 30 40V35C30 32.2333 27.7667 30 25 30H20C17.2333 30 15 32.2333 15 35V40C15 42.7667 17.2333 45 20 45Z" fill="#93C5FD"/>
<path d="M50 15H55C57.7667 15 60 12.7667 60 10V5C60 2.23333 57.7667 0 55 0H50C47.2333 0 45 2.23333 45 5V10C45 12.7667 47.2333 15 50 15Z" fill="#93C5FD"/>
<path d="M5 30H10C12.7667 30 15 27.7667 15 25V20C15 17.2333 12.7667 15 10 15H5C2.23333 15 0 17.2333 0 20V25C0 27.7667 2.23333 30 5 30Z" fill="#93C5FD"/>
<path d="M20 15H25C27.7667 15 30 12.7667 30 10V5C30 2.23333 27.7667 0 25 0H20C17.2333 0 15 2.23333 15 5V10C15 12.7667 17.2333 15 20 15Z" fill="#93C5FD"/>
<path d="M35 60H40C42.7667 60 45 57.7667 45 55V50C45 47.2333 42.7667 45 40 45H35C32.2333 45 30 47.2333 30 50V55C30 57.7667 32.2333 60 35 60Z" fill="#93C5FD"/>
<path d="M35 30H40C42.7667 30 45 27.7667 45 25V20C45 17.2333 42.7667 15 40 15H35C32.2333 15 30 17.2333 30 20V25C30 27.7667 32.2333 30 35 30Z" fill="#93C5FD"/>
<path d="M50 45H55C57.7667 45 60 42.7667 60 40V35C60 32.2333 57.7667 30 55 30H50C47.2333 30 45 32.2333 45 35V40C45 42.7667 47.2333 45 50 45Z" fill="#93C5FD"/>
<path d="M45 35C45 32.2333 42.7667 30 40 30C42.7667 30 45 27.7667 45 25C45 27.7667 47.2333 30 50 30C47.2333 30 45 32.2333 45 35Z" fill="#93C5FD"/>
<path d="M30 20C30 17.2333 27.7667 15 25 15C27.7667 15 30 12.7667 30 10C30 12.7667 32.2333 15 35 15C32.2333 15 30 17.2333 30 20Z" fill="#93C5FD"/>
<path d="M30 50C30 47.2333 27.7667 45 25 45C27.7667 45 30 42.7667 30 40C30 42.7667 32.2333 45 35 45C32.2333 45 30 47.2333 30 50Z" fill="#93C5FD"/>
<path d="M15 35C15 32.2333 12.7667 30 10 30C12.7667 30 15 27.7667 15 25C15 27.7667 17.2333 30 20 30C17.2333 30 15 32.2333 15 35Z" fill="#93C5FD"/>
<path d="M15 50C15 47.2333 12.7667 45 10 45C12.7667 45 15 42.7667 15 40C15 42.7667 17.2333 45 20 45C17.2333 45 15 47.2333 15 50Z" fill="#93C5FD"/>
<path d="M45 20C45 17.2333 42.7667 15 40 15C42.7667 15 45 12.7667 45 10C45 12.7667 47.2333 15 50 15C47.2333 15 45 17.2333 45 20Z" fill="#93C5FD"/>
<path d="M15 20C15 17.2333 12.7667 15 10 15C12.7667 15 15 12.7667 15 10C15 12.7667 17.2333 15 20 15C17.2333 15 15 17.2333 15 20Z" fill="#93C5FD"/>
<path d="M45 50C45 47.2333 42.7667 45 40 45C42.7667 45 45 42.7667 45 40C45 42.7667 47.2333 45 50 45C47.2333 45 45 47.2333 45 50Z" fill="#93C5FD"/>
</svg>
