<svg width="70" height="80" viewBox="0 0 70 80" fill="none" xmlns="http://www.w3.org/2000/svg">
<g clip-path="url(#clip0_10_32)">
<path d="M70 40.0072C70 35.3562 64.1928 30.9485 55.2894 28.2152C57.3441 19.1136 56.4309 11.8724 52.4073 9.55411C51.4798 9.01031 50.3954 8.75271 49.2112 8.75271V11.944C49.8675 11.944 50.3954 12.0728 50.8377 12.3161C52.7782 13.4323 53.6201 17.6826 52.9637 23.1492C52.8068 24.4944 52.5499 25.9112 52.236 27.3565C49.4395 26.6696 46.3861 26.1401 43.1757 25.7967C41.2495 23.1492 39.2519 20.745 37.2401 18.6414C41.8916 14.3052 46.2576 11.9297 49.2254 11.9297V8.7384C45.3017 8.7384 40.1651 11.5433 34.9715 16.4089C29.7778 11.5719 24.6413 8.79565 20.7175 8.79565V11.9869C23.671 11.9869 28.0514 14.3482 32.7028 18.6557C30.7053 20.7593 28.7077 23.1492 26.81 25.7967C23.5854 26.1401 20.532 26.6696 17.7354 27.3709C17.4073 25.9398 17.1647 24.5517 16.9935 23.2208C16.3229 17.7541 17.1504 13.5038 19.0766 12.3733C19.5047 12.1157 20.0611 12.0012 20.7175 12.0012V8.80996C19.519 8.80996 18.4346 9.06755 17.4929 9.61135C13.4835 11.9297 12.5846 19.1565 14.6535 28.2295C5.77864 30.9771 0 35.3705 0 40.0072C0 44.6581 5.80717 49.0658 14.7106 51.7991C12.6559 60.9007 13.5691 68.1419 17.5927 70.4602C18.5202 71.004 19.6046 71.2616 20.8031 71.2616C24.7269 71.2616 29.8634 68.4567 35.0571 63.5911C40.2507 68.4281 45.3873 71.2043 49.311 71.2043C50.5096 71.2043 51.594 70.9468 52.5357 70.403C56.5451 68.0846 57.4439 60.8578 55.375 51.7848C64.2214 49.0515 70 44.6438 70 40.0072ZM51.4227 30.462C50.8948 32.308 50.2385 34.2113 49.4965 36.1147C48.9115 34.9698 48.298 33.825 47.6274 32.6801C46.9711 31.5353 46.2719 30.419 45.5728 29.3314C47.5989 29.6319 49.5536 30.004 51.4227 30.462ZM44.8879 45.7028C43.775 47.6347 42.6335 49.4665 41.4492 51.1695C39.3233 51.3555 37.1688 51.4557 35 51.4557C32.8455 51.4557 30.691 51.3555 28.5793 51.1838C27.395 49.4808 26.2393 47.6633 25.1264 45.7457C24.042 43.871 23.0575 41.9677 22.1586 40.0501C23.0432 38.1325 24.042 36.2148 25.1121 34.3401C26.225 32.4082 27.3665 30.5764 28.5508 28.8735C30.6767 28.6874 32.8312 28.5873 35 28.5873C37.1545 28.5873 39.309 28.6874 41.4207 28.8592C42.605 30.5621 43.7607 32.3796 44.8736 34.2972C45.958 36.1719 46.9425 38.0752 47.8414 39.9928C46.9425 41.9105 45.958 43.8281 44.8879 45.7028ZM49.4965 43.8424C50.267 45.76 50.9234 47.6777 51.4656 49.538C49.5964 49.996 47.6274 50.3824 45.587 50.6829C46.2862 49.581 46.9853 48.4504 47.6417 47.2913C48.298 46.1464 48.9115 44.9873 49.4965 43.8424ZM35.0285 59.1119C33.7016 57.738 32.3746 56.2068 31.062 54.5325C32.3461 54.5897 33.6588 54.6326 34.9857 54.6326C36.3269 54.6326 37.6539 54.604 38.9523 54.5325C37.6682 56.2068 36.3412 57.738 35.0285 59.1119ZM24.413 50.6829C22.3869 50.3824 20.4321 50.0103 18.563 49.5523C19.0909 47.7063 19.7472 45.803 20.4892 43.8996C21.0742 45.0445 21.6877 46.1894 22.3583 47.3342C23.0289 48.4791 23.7138 49.5953 24.413 50.6829ZM34.9572 20.9024C36.2841 22.2763 37.6111 23.8075 38.9238 25.4819C37.6396 25.4246 36.3269 25.3817 35 25.3817C33.6588 25.3817 32.3318 25.4103 31.0334 25.4819C32.3176 23.8075 33.6445 22.2763 34.9572 20.9024ZM24.3987 29.3314C23.6996 30.4333 23.0004 31.5639 22.3441 32.723C21.6877 33.8679 21.0742 35.0127 20.4892 36.1576C19.7187 34.24 19.0624 32.3223 18.5202 30.462C20.3893 30.0183 22.3583 29.6319 24.3987 29.3314ZM11.4859 47.2483C6.43498 45.0874 3.16755 42.2539 3.16755 40.0072C3.16755 37.7604 6.43498 34.9126 11.4859 32.766C12.713 32.2365 14.0542 31.7642 15.4382 31.3206C16.2515 34.1255 17.3216 37.0449 18.6486 40.0358C17.3359 43.0124 16.2801 45.9174 15.481 48.708C14.0685 48.2644 12.7273 47.7778 11.4859 47.2483ZM19.1623 67.6982C17.2218 66.582 16.3799 62.3317 17.0363 56.8651C17.1932 55.5199 17.4501 54.1031 17.764 52.6578C20.5605 53.3447 23.6139 53.8742 26.8243 54.2176C28.7505 56.8651 30.7481 59.2693 32.7599 61.3729C28.1084 65.7091 23.7424 68.0846 20.7746 68.0846C20.1325 68.0703 19.5903 67.9415 19.1623 67.6982ZM53.0065 56.7935C53.6771 62.2602 52.8496 66.5105 50.9234 67.641C50.4953 67.8986 49.9388 68.0131 49.2825 68.0131C46.329 68.0131 41.9486 65.6518 37.2972 61.3443C39.2947 59.2407 41.2923 56.8508 43.19 54.2033C46.4146 53.8599 49.468 53.3304 52.2646 52.6291C52.5927 54.0745 52.8496 55.4626 53.0065 56.7935ZM58.4998 47.2483C57.2727 47.7778 55.9315 48.2501 54.5475 48.6937C53.7342 45.8888 52.6641 42.9695 51.3371 39.9785C52.6498 37.0019 53.7057 34.0969 54.5047 31.3063C55.9172 31.7499 57.2585 32.2365 58.5141 32.766C63.565 34.9269 66.8324 37.7604 66.8324 40.0072C66.8182 42.2539 63.5508 45.1017 58.4998 47.2483Z" fill="#61DAFB"/>
<path d="M34.9859 46.5471C38.5871 46.5471 41.5065 43.619 41.5065 40.0071C41.5065 36.3952 38.5871 33.4672 34.9859 33.4672C31.3847 33.4672 28.4653 36.3952 28.4653 40.0071C28.4653 43.619 31.3847 46.5471 34.9859 46.5471Z" fill="#61DAFB"/>
</g>
<defs>
<clipPath id="clip0_10_32">
<rect width="70" height="80" fill="white"/>
</clipPath>
</defs>
</svg>
