<svg width="60" height="60" viewBox="0 0 60 60" fill="none" xmlns="http://www.w3.org/2000/svg">
<path fill-rule="evenodd" clip-rule="evenodd" d="M23.2246 0C21.6326 0 20.3214 1.33262 20.3214 2.95075V15.4496C20.3214 15.7767 20.1624 16.0806 19.8963 16.2641C19.6298 16.4476 19.2937 16.4849 18.9947 16.3638L9.1965 12.2376C8.82886 12.0826 8.44522 12.0127 8.06808 12.0167C6.93701 12.0286 5.86001 12.7149 5.40292 13.8359L0.218668 26.5573C-0.390478 28.052 0.3176 29.7965 1.78949 30.4131L13.6731 35.3924C13.9457 35.5071 14.1505 35.7402 14.2326 36.0284C14.3147 36.3164 14.2628 36.6229 14.0926 36.8678L6.31323 46.8746C5.34422 48.1581 5.58528 50.0278 6.84807 51.0126L17.5971 59.3963C18.8598 60.3812 20.6996 60.1344 21.6684 58.8505L29.2328 49.1183C29.4163 48.8751 29.6985 48.7341 30.0001 48.7341C30.3015 48.7341 30.5837 48.8751 30.7672 49.1183L38.3315 58.8505C39.3006 60.134 41.1398 60.3812 42.4028 59.3963L53.1519 51.0126C54.4147 50.0277 54.6559 48.1585 53.6867 46.8746L45.9074 36.8678C45.7371 36.6233 45.6857 36.3164 45.7673 36.0284C45.8494 35.7402 46.0542 35.5071 46.3268 35.3924L58.2104 30.4131C59.6825 29.7965 60.3905 28.0526 59.7813 26.5573L54.5965 13.8359C54.1395 12.7149 53.0625 12.0286 51.9314 12.0167C51.5543 12.0128 51.1707 12.083 50.803 12.2376L41.0048 16.3638C40.7059 16.4851 40.3696 16.4476 40.1032 16.2641C39.8357 16.0806 39.6767 15.7767 39.6767 15.4496V2.95075C39.6767 1.33262 38.3657 0 36.7736 0H23.2246Z" fill="#F1D3F3"/>
</svg>
