<svg width="60" height="60" viewBox="0 0 60 60" fill="none" xmlns="http://www.w3.org/2000/svg">
<path d="M46.3999 36.8003H36.7998V46.4002H46.3999V36.8003Z" fill="#FCD34D"/>
<path d="M56.0337 46.4334H46.4004V36.8003L56.0337 46.4334Z" fill="#FCD34D"/>
<path d="M36.793 46.3985L30.0049 39.6104L23.2168 46.3985L30.0049 53.1866L36.793 46.3985Z" fill="#FCD34D"/>
<path d="M36.8 59.9998L30 53.2332L36.8 46.4331V59.9998Z" fill="#FCD34D"/>
<path d="M36.7871 13.6172V23.2173H46.387V13.6172H36.7871Z" fill="#FCD34D"/>
<path d="M46.3999 4V13.5999H36.7998L46.3999 4Z" fill="#FCD34D"/>
<path d="M46.3585 23.2108L39.5703 29.999L46.3587 36.7874L53.1469 29.9991L46.3585 23.2108Z" fill="#FCD34D"/>
<path d="M60.0003 23.2334L53.2004 30L46.4004 23.2334H60.0003Z" fill="#FCD34D"/>
<path d="M13.5972 23.2295H23.1973V13.6296L13.5972 13.6296L13.5972 23.2295Z" fill="#FCD34D"/>
<path d="M3.9668 13.6001H13.6001V23.2336L3.9668 13.6001Z" fill="#FCD34D"/>
<path d="M23.1943 13.6479L29.9824 20.436L36.7705 13.6479L29.9824 6.85981L23.1943 13.6479Z" fill="#FCD34D"/>
<path d="M23.2002 0L30.0002 6.80013L23.2002 13.5999V0Z" fill="#FCD34D"/>
<path d="M23.2168 46.4199V36.8198H13.6169L13.6169 46.4199H23.2168Z" fill="#FCD34D"/>
<path d="M13.5996 56.033V46.4331H23.1997L13.5996 56.033Z" fill="#FCD34D"/>
<path d="M13.6307 36.8332L20.4189 30.0449L13.6306 23.2566L6.84237 30.0448L13.6307 36.8332Z" fill="#FCD34D"/>
<path d="M0 36.8001L6.79997 30L13.5999 36.8001H0Z" fill="#FCD34D"/>
</svg>
